:FULLY-SPECIFIED
:DEGREES
134
root -2.89805 16.2479 -36.0981 3.45166 0.898622 -2.89397
lfemur -24.0759 6.89288 -8.15435
ltibia 49.6415
lfoot -24.3907 0.315873
ltoes -9.93447
rfemur -23.8123 -7.81782 14.5253
rtibia 51.6186
rfoot -28.1668 1.85187
rtoes -8.50205
lowerback 7.48224 1.90629 -1.66202
upperback -3.62715 2.47532 1.30256
thorax -8.16146 1.33929 1.94993
lowerneck -3.38279 -3.97877 -6.66234
upperneck 6.65231 -5.36837 6.17115
head 3.17459 -2.64236 3.02816
lclavicle 2.0745e-14 7.45443e-15
lhumerus -26.4728 -1.77629 88.8957
lradius 24.318
lwrist -31.344
lhand -28.3858 29.9486
lfingers 7.12502
lthumb -1.7585 59.9211
rclavicle 2.0745e-14 7.45443e-15
rhumerus -32.2585 1.79552 -79.6769
rradius 30.246
rwrist 3.35079
rhand -20.1682 -26.6774
rfingers 7.12502
rthumb 6.17741 -56.5674
135
root -2.8976 16.2457 -36.0988 3.4504 0.855804 -2.89936
lfemur -24.0732 6.9032 -8.14728
ltibia 49.6662
lfoot -24.4005 0.340804
ltoes -9.92294
rfemur -23.8386 -7.78886 14.5283
rtibia 51.6518
rfoot -28.1785 1.8474
rtoes -8.52255
lowerback 7.50568 1.91086 -1.6681
upperback -3.63267 2.481 1.30815
thorax -8.18196 1.34273 1.95764
lowerneck -3.40843 -3.9668 -6.68348
upperneck 6.67966 -5.35222 6.19285
head 3.18953 -2.63385 3.04031
lclavicle -6.80216e-16 -1.27222e-14
lhumerus -26.5019 -1.74186 88.8796
lradius 24.3196
lwrist -31.3501
lhand -28.4215 29.8085
lfingers 7.12502
lthumb -1.79298 59.7807
rclavicle -6.80216e-16 -1.27222e-14
rhumerus -32.2647 1.83917 -79.6871
rradius 30.2607
rwrist 3.36606
rhand -19.9004 -26.9561
rfingers 7.12502
rthumb 6.43597 -56.8383
136
root -2.89651 16.2447 -36.0982 3.43492 0.824514 -2.9187
lfemur -24.0541 6.90951 -8.12599
ltibia 49.6903
lfoot -24.4105 0.378378
ltoes -9.95096
rfemur -23.8408 -7.78309 14.543
rtibia 51.6761
rfoot -28.2032 1.89252
rtoes -8.46753
lowerback 7.51627 1.91383 -1.65238
upperback -3.63224 2.4872 1.31631
thorax -8.18765 1.34519 1.95622
lowerneck -3.39778 -3.9626 -6.68438
upperneck 6.68758 -5.34779 6.19737
head 3.19012 -2.63171 3.04243
lclavicle -1.4818e-14 -1.49089e-14
lhumerus -26.5229 -1.68326 88.8509
lradius 24.3097
lwrist -31.3568
lhand -28.2722 29.9303
lfingers 7.12502
lthumb -1.64883 59.9037
rclavicle -1.4818e-14 -1.49089e-14
rhumerus -32.2744 1.849 -79.6861
rradius 30.2672
rwrist 3.37773
rhand -19.8288 -26.9846
rfingers 7.12502
rthumb 6.5051 -56.8647
137
root -2.89626 16.2428 -36.0984 3.43742 0.757836 -2.89261
lfemur -24.0495 6.92994 -8.15652
ltibia 49.7125
lfoot -24.4119 0.44395
ltoes -10.0388
rfemur -23.8863 -7.74838 14.5136
rtibia 51.7091
rfoot -28.1941 1.91971
rtoes -8.42548
lowerback 7.52616 1.92279 -1.68594
upperback -3.62069 2.49507 1.31272
thorax -8.1828 1.35056 1.96997
lowerneck -3.48087 -3.96098 -6.71618
upperneck 6.71339 -5.34214 6.22741
head 3.21711 -2.62751 3.05831
lclavicle 3.04125e-14 1.23246e-14
lhumerus -26.5122 -1.64104 88.8316
lradius 24.3126
lwrist -31.3567
lhand -28.3368 30.0193
lfingers 7.12502
lthumb -1.71115 59.9922
rclavicle 3.04125e-14 1.23246e-14
rhumerus -32.2665 1.88824 -79.6906
rradius 30.298
rwrist 3.37337
rhand -19.8604 -26.8585
rfingers 7.12502
rthumb 6.47462 -56.7395
138
root -2.89547 16.2417 -36.0982 3.44534 0.728671 -2.88283
lfemur -24.0597 6.94343 -8.17241
ltibia 49.7368
lfoot -24.4247 0.479271
ltoes -10.0806
rfemur -23.9142 -7.76655 14.5011
rtibia 51.7388
rfoot -28.2243 1.93891
rtoes -8.47393
lowerback 7.53024 1.93174 -1.70688
upperback -3.62532 2.50493 1.31464
thorax -8.19181 1.35667 1.9821
lowerneck -3.47794 -3.97784 -6.75594
upperneck 6.70696 -5.36598 6.27599
head 3.21995 -2.63893 3.08172
lclavicle 1.37542e-14 4.37326e-15
lhumerus -26.5378 -1.65546 88.8343
lradius 24.3287
lwrist -31.3136
lhand -28.2395 30.1186
lfingers 7.12502
lthumb -1.61719 60.0923
rclavicle 1.37542e-14 4.37326e-15
rhumerus -32.2524 1.88729 -79.6792
rradius 30.2881
rwrist 3.38027
rhand -20.0057 -26.7571
rfingers 7.12502
rthumb 6.33428 -56.6424
139
root -2.89445 16.2396 -36.0985 3.43521 0.677621 -2.87773
lfemur -24.0406 6.96176 -8.1789
ltibia 49.7592
lfoot -24.439 0.512239
ltoes -10.0628
rfemur -23.9381 -7.74949 14.4895
rtibia 51.7787
rfoot -28.2231 1.95055
rtoes -8.56784
lowerback 7.57044 1.93886 -1.724
upperback -3.63251 2.51296 1.32463
thorax -8.22481 1.36209 1.99979
lowerneck -3.51881 -3.98615 -6.78982
upperneck 6.75101 -5.37521 6.28643
head 3.24557 -2.64348 3.09105
lclavicle 1.86741e-14 1.82882e-14
lhumerus -26.5763 -1.59909 88.8222
lradius 24.3254
lwrist -31.343
lhand -28.2759 30.0467
lfingers 7.12502
lthumb -1.65241 60.02
rclavicle 1.86741e-14 1.82882e-14
rhumerus -32.2617 1.90044 -79.6552
rradius 30.2735
rwrist 3.40937
rhand -20.0055 -26.6416
rfingers 7.12502
rthumb 6.33455 -56.5269
140
root -2.89386 16.2375 -36.0991 3.43395 0.648611 -2.89553
lfemur -24.0505 6.98759 -8.16141
ltibia 49.7857
lfoot -24.4415 0.532035
ltoes -10.1712
rfemur -23.964 -7.75674 14.5048
rtibia 51.8166
rfoot -28.2347 2.02568
rtoes -8.40056
lowerback 7.57503 1.93946 -1.71114
upperback -3.62795 2.5157 1.33275
thorax -8.22249 1.36292 2.00067
lowerneck -3.52275 -4.00531 -6.80775
upperneck 6.76273 -5.40026 6.28838
head 3.25314 -2.65629 3.09392
lclavicle 3.76565e-14 9.64106e-15
lhumerus -26.5921 -1.57229 88.8084
lradius 24.3395
lwrist -31.3084
lhand -28.2383 30.0943
lfingers 7.12502
lthumb -1.61604 60.0679
rclavicle 3.76565e-14 9.64106e-15
rhumerus -32.2251 1.8717 -79.6395
rradius 30.2441
rwrist 3.43193
rhand -19.8965 -26.7287
rfingers 7.12502
rthumb 6.43976 -56.6108
141
root -2.89325 16.2357 -36.0987 3.44408 0.601801 -2.8221
lfemur -24.0466 6.98016 -8.2494
ltibia 49.8037
lfoot -24.4382 0.627422
ltoes -10.3056
rfemur -24.0105 -7.78314 14.4203
rtibia 51.8579
rfoot -28.255 2.05348
rtoes -8.47042
lowerback 7.56043 1.94548 -1.80005
upperback -3.6159 2.51287 1.31658
thorax -8.20432 1.3656 2.03455
lowerneck -3.6189 -4.00232 -6.75425
upperneck 6.83289 -5.39106 6.21419
head 3.28954 -2.65116 3.05734
lclavicle 5.1948e-15 1.60022e-14
lhumerus -26.5841 -1.50142 88.7741
lradius 24.3137
lwrist -31.3633
lhand -28.2142 30.2234
lfingers 7.12502
lthumb -1.59281 60.1972
rclavicle 5.1948e-15 1.60022e-14
rhumerus -32.1899 1.87214 -79.6306
rradius 30.23
rwrist 3.43706
rhand -19.7485 -26.9024
rfingers 7.12502
rthumb 6.58265 -56.78
142
root -2.89267 16.2342 -36.0985 3.43993 0.580602 -2.81412
lfemur -24.0421 6.96279 -8.25668
ltibia 49.8264
lfoot -24.4527 0.635023
ltoes -10.2468
rfemur -24.0256 -7.79381 14.4031
rtibia 51.896
rfoot -28.2734 2.12383
rtoes -8.39075
lowerback 7.57651 1.9313 -1.82255
upperback -3.61146 2.49177 1.32478
thorax -8.20926 1.35674 2.05861
lowerneck -3.74151 -3.95015 -6.61602
upperneck 6.93967 -5.31296 6.03542
head 3.33043 -2.6126 2.97147
lclavicle -5.44631e-14 -6.26172e-15
lhumerus -26.6123 -1.50516 88.758
lradius 24.3331
lwrist -31.2762
lhand -28.1904 30.2004
lfingers 7.12502
lthumb -1.56979 60.1743
rclavicle -5.44631e-14 -6.26172e-15
rhumerus -32.1554 1.91129 -79.6365
rradius 30.2016
rwrist 3.44821
rhand -19.7823 -26.8209
rfingers 7.12502
rthumb 6.54998 -56.6996
143
root -2.89182 16.2325 -36.0985 3.43946 0.564593 -2.82413
lfemur -24.046 6.94716 -8.24618
ltibia 49.8464
lfoot -24.4599 0.638814
ltoes -10.2144
rfemur -24.0489 -7.81609 14.4111
rtibia 51.9335
rfoot -28.2899 2.14417
rtoes -8.43875
lowerback 7.58911 1.901 -1.83832
upperback -3.61801 2.45135 1.35184
thorax -8.22357 1.33889 2.10172
lowerneck -3.91744 -3.79372 -6.34242
upperneck 7.14693 -5.091 5.68754
head 3.39376 -2.50406 2.8086
lclavicle -2.94248e-14 -1.68967e-14
lhumerus -26.6739 -1.44249 88.729
lradius 24.3527
lwrist -31.2369
lhand -28.2467 30.2175
lfingers 7.12502
lthumb -1.62414 60.191
rclavicle -2.94248e-14 -1.68967e-14
rhumerus -32.1443 2.0179 -79.6432
rradius 30.1897
rwrist 3.457
rhand -19.8141 -26.7285
rfingers 7.12502
rthumb 6.51929 -56.6082
